# xmcd
# Copyright (C) 1995-1998 Ti Kan
#
# Track frame offsets:
#       150
#       18006
#       35515
#       53568
#       66974
#       79443
#       94644
#       115305
#       133254
#       148070
#       163736
#       181285
#
# Disc length: 2585 seconds
#
# Revision: 0
# Processed by: cddbd v1.5.1PL2 Copyright (c) Steve Scherf et al.
# Submitted via: CD-Transfer v1.0
#
DISCID=a40a170c
DTITLE=Lucas Jonathan - Invincible
DYEAR=2006
DGENRE=
TTITLE0=Only My Body
TTITLE1=The Best In Me
TTITLE2=See Through Your Eyes
TTITLE3=Sunday Morning
TTITLE4=Everybody Stop
TTITLE5=Emily
TTITLE6=Invincible
TTITLE7=I Am
TTITLE8=Down Down Down
TTITLE9=Make A Decision
TTITLE10=Someone To Miss
TTITLE11=Smile
EXTD=
EXTT0=
EXTT1=
EXTT2=
EXTT3=
EXTT4=
EXTT5=
EXTT6=
EXTT7=
EXTT8=
EXTT9=
EXTT10=
EXTT11=
PLAYORDER=
